<svg width="165" height="49" viewBox="0 0 165 49" fill="none" xmlns="http://www.w3.org/2000/svg">
<path d="M29.1788 15.5267V34.7678C29.1788 35.8294 28.2434 36.6919 27.0921 36.6919C25.9407 36.6919 25.0053 35.8294 25.0053 34.7678V28.531C25.0053 27.4694 24.0698 26.6069 22.9185 26.6069H18.7449C17.5936 26.6069 16.6581 27.4694 16.6581 28.531V29.3272C16.6581 30.3888 15.7227 31.2513 14.5713 31.2513C13.42 31.2513 12.4846 30.3888 12.4846 29.3272V20.2042C12.4846 19.1427 13.42 18.2801 14.5713 18.2801C15.7227 18.2801 16.6581 19.1427 16.6581 20.2042V20.8677C16.6581 21.9293 17.5936 22.7918 18.7449 22.7918H22.9545C24.1058 22.7918 25.0413 21.9293 25.0413 20.8677V15.5267C25.0413 14.4651 25.9767 13.6025 27.128 13.6025C28.2434 13.6357 29.1788 14.4651 29.1788 15.5267Z" fill="white"/>
<path d="M25.509 40.6401C24.8973 40.6401 24.2857 40.9055 23.9259 41.37C21.8751 43.8249 18.601 45.4173 14.9671 45.4173C8.81469 45.4173 3.8136 40.9387 3.8136 35.4649V14.3328C3.8136 8.85906 8.85067 4.38052 14.9671 4.38052C18.7089 4.38052 22.019 6.03924 24.0698 8.56049C24.4656 9.02494 25.0412 9.32351 25.6889 9.32351H25.9047C27.4878 9.32351 28.4593 7.66479 27.5598 6.47051C24.8973 2.88767 20.364 0.499115 15.219 0.499115H14.7872C6.65594 0.499115 -0.000183105 6.43733 -0.000183105 13.6694V35.8298C-0.000183105 43.0619 6.65594 49.0001 14.7872 49.0001H15.219C20.1121 49.0001 24.4296 46.8769 27.128 43.5927C28.0635 42.3984 27.164 40.6401 25.509 40.6401Z" fill="white"/>
<path d="M38.8212 16.6551H44.29C45.981 16.6551 47.5641 17.2191 49.0033 18.3138C49.7229 18.9441 50.1906 19.4749 50.4065 19.8398C51.126 20.9678 51.5218 22.1289 51.5218 23.3231V35.0337C51.5218 35.5645 51.234 36.0289 50.6583 36.427C50.3345 36.5929 50.0107 36.6924 49.6869 36.6924C48.8953 36.6924 48.3197 36.3607 47.9599 35.664C47.78 35.1996 47.4562 34.9674 46.9885 34.9674C46.7726 34.9674 46.3768 35.1664 45.7292 35.5313C45.1895 35.7967 44.5419 36.0621 43.8223 36.2612C42.671 36.5597 41.6636 36.7256 40.8001 36.7256H40.5122C38.6053 36.7256 36.9143 36.0621 35.4032 34.702C34.7556 34.0385 34.3598 33.4745 34.1439 33.0432C33.6402 32.048 33.3884 31.086 33.3884 30.1902V29.9912C33.3884 28.2661 34.1079 26.7069 35.5471 25.3136C37.0582 24.053 38.7133 23.4227 40.4762 23.4227H46.4847C47.0244 23.4227 47.3482 23.29 47.4922 23.0578C47.6001 22.9251 47.6721 22.7924 47.6721 22.6265V22.5601C47.6361 22.1952 47.3842 21.7308 46.8805 21.2C46.3408 20.7355 45.9091 20.437 45.5493 20.3374C45.1895 20.1716 44.5419 20.0721 43.6424 20.0721H38.8212C38.3175 20.0721 37.8858 19.873 37.454 19.4417C37.2021 19.11 37.0582 18.8114 37.0582 18.5129V18.3802C37.0582 17.8162 37.3101 17.3849 37.8498 17.02C38.2096 16.7546 38.4974 16.6551 38.8212 16.6551ZM37.0582 30.0576C37.0582 30.9533 37.454 31.7826 38.2815 32.5125C39.0011 33.0432 39.7567 33.3086 40.4403 33.3086H40.8001C41.9874 33.3086 43.2107 32.9769 44.4699 32.2802C45.8731 31.484 46.8445 30.2898 47.4562 28.7637C47.6001 28.2993 47.6721 27.9344 47.744 27.669V27.5695C47.744 27.2377 47.5281 27.0055 47.1324 26.8065C47.0244 26.8065 46.9525 26.7733 46.9165 26.7733H40.4762C39.6127 26.7733 38.8212 27.105 38.0297 27.8017C37.382 28.4984 37.0582 29.2614 37.0582 30.0576Z" fill="white"/>
<path d="M57.3866 8.52621H57.5305C58.358 8.52621 59.0056 8.92431 59.5093 9.68732C59.6532 9.95271 59.7252 10.2513 59.7252 10.583V10.7821C59.7252 11.5119 59.2934 12.1422 58.4299 12.5735C58.1061 12.7062 57.7823 12.7725 57.4585 12.7725C56.4871 12.7725 55.8035 12.3413 55.3357 11.4456C55.2278 11.2133 55.1918 10.9811 55.1918 10.7821V10.6162C55.1918 9.72049 55.6955 9.09018 56.703 8.69209C56.9548 8.55939 57.1707 8.52621 57.3866 8.52621Z" fill="white"/>
<path d="M57.2786 16.6551H57.5664C58.0341 16.6551 58.5019 16.8873 58.8976 17.3186C59.1135 17.6503 59.2214 17.9489 59.2214 18.2475V35.0669C59.2214 35.664 58.8616 36.1616 58.1421 36.5597C57.8542 36.6593 57.6384 36.6924 57.4944 36.6924H57.3145C56.7029 36.6924 56.2352 36.3939 55.8034 35.8299C55.6235 35.5977 55.5516 35.1996 55.5516 34.6688V18.6787C55.5516 17.783 55.8394 17.2191 56.4151 16.9205C56.7389 16.7546 56.9907 16.6551 57.2786 16.6551Z" fill="white"/>
<path d="M65.3377 16.6551C65.9494 16.6551 66.4531 16.9205 66.8488 17.4181C67.1007 17.783 67.3885 17.9489 67.7483 17.9489C67.8922 17.9489 68.252 17.8162 68.7557 17.5508C70.0869 16.9537 71.4901 16.6551 72.8933 16.6551C75.6997 16.6551 78.1103 17.6503 80.0891 19.674C80.8087 20.5365 81.2764 21.2332 81.5283 21.7971C82.104 22.8255 82.3918 24.1857 82.3918 25.8776V34.7351C82.3918 35.5313 82.1399 36.0621 81.6722 36.3275C81.3484 36.5597 80.9526 36.6924 80.5209 36.6924C80.0531 36.6924 79.6214 36.4934 79.1896 36.1285C78.8658 35.8299 78.6859 35.3654 78.6859 34.702V25.9439C78.6859 24.6833 78.506 23.7544 78.1463 23.1573C77.4627 21.8303 76.3473 20.9014 74.8002 20.3374C74.1166 20.1384 73.469 20.0389 72.8933 20.0389C71.2383 20.0389 69.7631 20.636 68.5758 21.8303C67.9282 22.527 67.4605 23.3563 67.2446 24.3184C67.1726 24.6501 67.1007 25.2141 67.1007 25.9439V34.702C67.1007 35.4981 66.8488 36.0289 66.3811 36.2943C66.0573 36.5266 65.6975 36.6592 65.2298 36.6592C64.762 36.6592 64.3303 36.4602 63.8985 36.0953C63.5747 35.7967 63.3948 35.3323 63.3948 34.6688V18.6124C63.3948 17.9489 63.5747 17.4513 63.9345 17.1527C64.4382 16.821 64.87 16.6551 65.3377 16.6551Z" fill="white"/>
<path d="M88.4724 8.62643C89.192 8.62643 89.7317 8.95818 90.1635 9.65484C90.2354 9.92024 90.3074 10.1856 90.3074 10.3847V15.6594C90.3074 16.157 90.4873 16.4556 90.8471 16.5883C90.991 16.6215 91.0989 16.6546 91.2428 16.6546H97.5751C97.6111 16.6546 97.6111 16.6878 97.6111 16.721V19.0764C97.6111 19.5408 97.4312 19.8394 97.0355 19.9721C96.8915 20.0384 96.7836 20.0384 96.6757 20.0384H92.4661C91.6026 20.0384 91.027 20.2375 90.7391 20.6687C90.4513 20.901 90.3074 21.3654 90.3074 22.0621V31.2514C90.3074 32.0476 90.5233 32.6115 90.955 32.8438C91.2069 33.1423 91.7106 33.3082 92.4301 33.3082H93.4735C93.5095 33.3082 93.5095 33.3082 93.5095 33.3414V36.6588C93.5095 36.692 93.5095 36.692 93.4735 36.692H91.3148C89.5878 36.692 88.2566 35.9953 87.2492 34.602C86.8534 33.9385 86.6375 33.2087 86.6375 32.3793V10.3847C86.6375 9.58849 87.0693 9.02453 87.9328 8.69278C88.1127 8.65961 88.2926 8.62643 88.4724 8.62643Z" fill="white"/>
<path d="M111.463 16.6217C114.485 16.6217 117.112 17.6833 119.414 19.7733C120.242 20.6026 120.638 21.2329 120.638 21.6642C120.638 21.7637 120.638 21.8301 120.674 21.8633C120.674 22.2945 120.458 22.6926 120.062 23.0907C119.846 23.2566 116.32 25.5788 109.52 30.0242C109.52 30.0242 108.944 30.4223 107.793 31.1853C107.613 31.3843 107.541 31.5502 107.541 31.7492V31.8819C107.541 32.1142 107.685 32.3464 107.973 32.5122C109.124 33.043 110.204 33.3084 111.211 33.3084H111.643C113.262 33.3084 114.809 32.7445 116.284 31.6165C117.076 30.8867 117.543 30.3227 117.687 30.0242C117.939 29.6592 118.155 29.1948 118.371 28.5645C118.515 27.9342 118.695 27.4697 118.983 27.2375C119.414 26.8726 119.846 26.7067 120.278 26.7067C121.141 26.7067 121.717 27.0716 122.041 27.8347C122.113 28.0005 122.149 28.1664 122.149 28.3654V28.4318C122.149 28.9294 121.861 29.7588 121.357 30.9199C121.069 31.5502 120.566 32.2468 119.882 33.0762C119.162 33.806 118.551 34.37 118.011 34.7349C117.076 35.3321 116.284 35.7633 115.565 35.9956C114.197 36.4932 112.902 36.7586 111.643 36.7586H111.319C109.124 36.7586 107.002 36.1283 104.987 34.8344C104.015 34.1378 103.224 33.408 102.576 32.5786C102.108 31.9483 101.749 31.3511 101.461 30.8204C100.849 29.3939 100.525 28.0669 100.525 26.7731C100.525 24.3845 101.389 22.195 103.116 20.2045C103.907 19.4084 104.519 18.9107 104.879 18.7117C106.93 17.3184 109.088 16.6217 111.463 16.6217ZM104.267 26.6404C104.267 27.5693 104.375 28.1 104.627 28.2659C104.807 28.4318 105.023 28.4981 105.311 28.4981C105.526 28.4981 105.922 28.2659 106.498 27.8347C106.57 27.8015 109.412 25.9437 115.061 22.2282C115.277 22.0291 115.385 21.8301 115.385 21.5979V21.4652C115.385 21.2329 115.241 21.0339 114.953 20.8349C113.802 20.2709 112.722 20.0055 111.715 20.0055H111.283C109.628 20.0055 108.045 20.6026 106.534 21.7969C105.023 23.2234 104.267 24.8158 104.267 26.6404Z" fill="white"/>
<path d="M135.173 16.6551C137.44 16.6551 139.491 17.2522 141.362 18.4465C141.793 18.8114 142.009 19.2427 142.009 19.7735C142.009 20.3706 141.685 20.8351 141.038 21.2C140.714 21.3327 140.426 21.399 140.174 21.399C139.743 21.399 139.203 21.2 138.591 20.8351C137.548 20.3043 136.361 20.0389 135.101 20.0389H134.957C133.842 20.0389 132.691 20.3375 131.503 20.9346C129.956 21.7971 128.877 22.9914 128.301 24.5506C128.049 25.2804 127.905 25.9771 127.905 26.7069C127.905 28.5315 128.697 30.1571 130.244 31.5836C131.216 32.3466 132.151 32.8442 133.122 33.0764C133.806 33.2423 134.418 33.3418 134.921 33.3418H135.101C136.54 33.3418 137.908 32.9769 139.167 32.2139C139.491 32.048 139.815 31.9817 140.138 31.9817C140.714 31.9817 141.218 32.2471 141.649 32.7447C141.865 33.0432 141.937 33.375 141.937 33.6736C141.937 34.3702 141.542 34.9342 140.786 35.2991C139.059 36.2612 137.152 36.7588 135.065 36.7588C132.727 36.7588 130.532 36.0621 128.481 34.6356C128.013 34.3039 127.51 33.8394 126.97 33.2755C126.358 32.612 125.927 32.048 125.747 31.6831C124.811 30.1239 124.308 28.4984 124.308 26.7401C124.308 24.5838 125.027 22.5601 126.502 20.7024C126.754 20.3706 127.222 19.9062 127.941 19.2759C128.733 18.6787 129.453 18.1811 130.136 17.8825C131.791 17.02 133.482 16.6551 135.173 16.6551Z" fill="white"/>
<path d="M147.946 8.62643H148.09C148.737 8.62643 149.241 8.95818 149.673 9.58849C149.781 9.85389 149.853 10.0861 149.853 10.2188V16.8869C149.853 17.285 150.068 17.5504 150.5 17.7162C150.572 17.7162 150.644 17.7494 150.68 17.7494H150.716C150.932 17.7494 151.364 17.5835 152.047 17.285C153.235 16.8537 154.386 16.6546 155.537 16.6546C157.912 16.6546 159.999 17.4177 161.87 18.9105C162.733 19.7067 163.273 20.3038 163.489 20.6687C164.136 21.5976 164.568 22.5597 164.784 23.5881C164.928 24.1189 165 24.9482 165 26.1093V34.7679C165 35.6967 164.64 36.2939 163.884 36.5925C163.633 36.692 163.381 36.7252 163.237 36.7252H163.093C162.409 36.7252 161.87 36.3934 161.474 35.6968C161.366 35.4977 161.294 35.166 161.294 34.7679V25.479C161.294 23.9862 160.754 22.6924 159.639 21.6308C158.452 20.5692 157.084 20.0384 155.501 20.0384C153.846 20.0384 152.407 20.6356 151.184 21.863C150.248 22.8583 149.781 24.0525 149.781 25.4459V35.0664C149.781 35.5641 149.529 35.9953 148.989 36.3934C148.665 36.5925 148.341 36.692 148.018 36.692H147.874C147.262 36.692 146.758 36.3934 146.363 35.8294C146.183 35.5972 146.111 35.1991 146.111 34.6683V10.6169C146.111 9.68802 146.471 9.09088 147.226 8.79231C147.514 8.69278 147.766 8.62643 147.946 8.62643Z" fill="white"/>
</svg>
